<?xml version="1.0" encoding="UTF-8" standalone="no"?><svg xmlns="http://www.w3.org/2000/svg" xmlns:xlink="http://www.w3.org/1999/xlink" contentStyleType="text/css" height="207px" preserveAspectRatio="none" style="width:997px;height:207px;background:#FFFFFF;" version="1.1" viewBox="0 0 997 207" width="997px" zoomAndPan="magnify"><defs/><g><rect fill="#F1F1F1" height="86.4375" rx="5" ry="5" style="stroke:#F1F1F1;stroke-width:1.5;" width="150" x="10" y="38"/><text fill="#000000" font-family="sans-serif" font-size="14" font-weight="bold" lengthAdjust="spacing" textLength="118" x="15" y="54.5332">default_exercise</text><text fill="#000000" font-family="sans-serif" font-size="14" lengthAdjust="spacing" textLength="12" x="143" y="54.5332">   </text><line style="stroke:#000000;stroke-width:1.0;" x1="138" x2="138" y1="38" y2="59.6094"/><line style="stroke:#000000;stroke-width:1.0;" x1="10" x2="160" y1="59.6094" y2="59.6094"/><text fill="#000000" font-family="sans-serif" font-size="14" font-weight="bold" lengthAdjust="spacing" textLength="61" x="15" y="76.1426">exercise</text><text fill="#000000" font-family="sans-serif" font-size="14" lengthAdjust="spacing" textLength="12" x="143" y="76.1426">   </text><line style="stroke:#000000;stroke-width:1.0;" x1="138" x2="138" y1="59.6094" y2="81.2188"/><line style="stroke:#000000;stroke-width:1.0;" x1="10" x2="160" y1="81.2188" y2="81.2188"/><text fill="#000000" font-family="sans-serif" font-size="14" font-weight="bold" lengthAdjust="spacing" textLength="84" x="15" y="97.752">exercise_pr</text><text fill="#000000" font-family="sans-serif" font-size="14" lengthAdjust="spacing" textLength="12" x="143" y="97.752">   </text><line style="stroke:#000000;stroke-width:1.0;" x1="138" x2="138" y1="81.2188" y2="102.8281"/><line style="stroke:#000000;stroke-width:1.0;" x1="10" x2="160" y1="102.8281" y2="102.8281"/><text fill="#000000" font-family="sans-serif" font-size="14" font-weight="bold" lengthAdjust="spacing" textLength="40" x="15" y="119.3613">users</text><text fill="#000000" font-family="sans-serif" font-size="14" lengthAdjust="spacing" textLength="12" x="143" y="119.3613">   </text><line style="stroke:#000000;stroke-width:1.0;" x1="138" x2="138" y1="102.8281" y2="124.4375"/><rect fill="none" height="86.4375" rx="5" ry="5" style="stroke:#000000;stroke-width:1.5;" width="150" x="10" y="38"/><rect fill="#F1F1F1" height="21.6094" rx="5" ry="5" style="stroke:#F1F1F1;stroke-width:1.5;" width="190" x="197" y="10"/><text fill="#000000" font-family="sans-serif" font-size="14" font-weight="bold" lengthAdjust="spacing" textLength="104" x="202" y="26.5332">Exercise Name</text><text fill="#000000" font-family="sans-serif" font-size="14" lengthAdjust="spacing" textLength="66" x="316" y="26.5332">BOOLEAN</text><line style="stroke:#000000;stroke-width:1.0;" x1="311" x2="311" y1="10" y2="31.6094"/><rect fill="none" height="21.6094" rx="5" ry="5" style="stroke:#000000;stroke-width:1.5;" width="190" x="197" y="10"/><rect fill="#F1F1F1" height="21.6094" rx="5" ry="5" style="stroke:#F1F1F1;stroke-width:1.5;" width="136" x="224" y="50"/><text fill="#000000" font-family="sans-serif" font-size="14" font-weight="bold" lengthAdjust="spacing" textLength="104" x="229" y="66.5332">Exercise Name</text><text fill="#000000" font-family="sans-serif" font-size="14" lengthAdjust="spacing" textLength="12" x="343" y="66.5332">   </text><line style="stroke:#000000;stroke-width:1.0;" x1="338" x2="338" y1="50" y2="71.6094"/><rect fill="none" height="21.6094" rx="5" ry="5" style="stroke:#000000;stroke-width:1.5;" width="136" x="224" y="50"/><rect fill="#F1F1F1" height="43.2188" rx="5" ry="5" style="stroke:#F1F1F1;stroke-width:1.5;" width="109" x="459" y="28.5"/><text fill="#000000" font-family="sans-serif" font-size="14" font-weight="bold" lengthAdjust="spacing" textLength="25" x="464" y="45.0332">img</text><text fill="#000000" font-family="sans-serif" font-size="14" lengthAdjust="spacing" textLength="51" x="512" y="45.0332">STRING</text><line style="stroke:#000000;stroke-width:1.0;" x1="507" x2="507" y1="28.5" y2="50.1094"/><line style="stroke:#000000;stroke-width:1.0;" x1="459" x2="568" y1="50.1094" y2="50.1094"/><text fill="#000000" font-family="sans-serif" font-size="14" font-weight="bold" lengthAdjust="spacing" textLength="38" x="464" y="66.6426">name</text><text fill="#000000" font-family="sans-serif" font-size="14" lengthAdjust="spacing" textLength="51" x="512" y="66.6426">STRING</text><line style="stroke:#000000;stroke-width:1.0;" x1="507" x2="507" y1="50.1094" y2="71.7188"/><rect fill="none" height="43.2188" rx="5" ry="5" style="stroke:#000000;stroke-width:1.5;" width="109" x="459" y="28.5"/><rect fill="#F1F1F1" height="21.6094" rx="5" ry="5" style="stroke:#F1F1F1;stroke-width:1.5;" width="136" x="224" y="90"/><text fill="#000000" font-family="sans-serif" font-size="14" font-weight="bold" lengthAdjust="spacing" textLength="104" x="229" y="106.5332">Exercise Name</text><text fill="#000000" font-family="sans-serif" font-size="14" lengthAdjust="spacing" textLength="12" x="343" y="106.5332">   </text><line style="stroke:#000000;stroke-width:1.0;" x1="338" x2="338" y1="90" y2="111.6094"/><rect fill="none" height="21.6094" rx="5" ry="5" style="stroke:#000000;stroke-width:1.5;" width="136" x="224" y="90"/><rect fill="#F1F1F1" height="21.6094" rx="5" ry="5" style="stroke:#F1F1F1;stroke-width:1.5;" width="66" x="480.5" y="90"/><text fill="#000000" font-family="sans-serif" font-size="14" font-weight="bold" lengthAdjust="spacing" textLength="34" x="485.5" y="106.5332">UUID</text><text fill="#000000" font-family="sans-serif" font-size="14" lengthAdjust="spacing" textLength="12" x="529.5" y="106.5332">   </text><line style="stroke:#000000;stroke-width:1.0;" x1="524.5" x2="524.5" y1="90" y2="111.6094"/><rect fill="none" height="21.6094" rx="5" ry="5" style="stroke:#000000;stroke-width:1.5;" width="66" x="480.5" y="90"/><rect fill="#F1F1F1" height="21.6094" rx="5" ry="5" style="stroke:#F1F1F1;stroke-width:1.5;" width="66" x="702" y="90"/><text fill="#000000" font-family="sans-serif" font-size="14" font-weight="bold" lengthAdjust="spacing" textLength="34" x="707" y="106.5332">UUID</text><text fill="#000000" font-family="sans-serif" font-size="14" lengthAdjust="spacing" textLength="12" x="751" y="106.5332">   </text><line style="stroke:#000000;stroke-width:1.0;" x1="746" x2="746" y1="90" y2="111.6094"/><rect fill="none" height="21.6094" rx="5" ry="5" style="stroke:#000000;stroke-width:1.5;" width="66" x="702" y="90"/><rect fill="#F1F1F1" height="43.2188" rx="5" ry="5" style="stroke:#F1F1F1;stroke-width:1.5;" width="118" x="867" y="79.5"/><text fill="#000000" font-family="sans-serif" font-size="14" font-weight="bold" lengthAdjust="spacing" textLength="31" x="872" y="96.0332">date</text><text fill="#000000" font-family="sans-serif" font-size="14" lengthAdjust="spacing" textLength="51" x="929" y="96.0332">STRING</text><line style="stroke:#000000;stroke-width:1.0;" x1="924" x2="924" y1="79.5" y2="101.1094"/><line style="stroke:#000000;stroke-width:1.0;" x1="867" x2="985" y1="101.1094" y2="101.1094"/><text fill="#000000" font-family="sans-serif" font-size="14" font-weight="bold" lengthAdjust="spacing" textLength="47" x="872" y="117.6426">weight</text><text fill="#000000" font-family="sans-serif" font-size="14" lengthAdjust="spacing" textLength="51" x="929" y="117.6426">STRING</text><line style="stroke:#000000;stroke-width:1.0;" x1="924" x2="924" y1="101.1094" y2="122.7188"/><rect fill="none" height="43.2188" rx="5" ry="5" style="stroke:#000000;stroke-width:1.5;" width="118" x="867" y="79.5"/><rect fill="#F1F1F1" height="21.6094" rx="5" ry="5" style="stroke:#F1F1F1;stroke-width:1.5;" width="66" x="259" y="141"/><text fill="#000000" font-family="sans-serif" font-size="14" font-weight="bold" lengthAdjust="spacing" textLength="34" x="264" y="157.5332">UUID</text><text fill="#000000" font-family="sans-serif" font-size="14" lengthAdjust="spacing" textLength="12" x="308" y="157.5332">   </text><line style="stroke:#000000;stroke-width:1.0;" x1="303" x2="303" y1="141" y2="162.6094"/><rect fill="none" height="21.6094" rx="5" ry="5" style="stroke:#000000;stroke-width:1.5;" width="66" x="259" y="141"/><rect fill="#F1F1F1" height="64.8281" rx="5" ry="5" style="stroke:#F1F1F1;stroke-width:1.5;" width="179" x="424" y="130.5"/><text fill="#000000" font-family="sans-serif" font-size="14" font-weight="bold" lengthAdjust="spacing" textLength="88" x="429" y="147.0332">displayName</text><text fill="#000000" font-family="sans-serif" font-size="14" lengthAdjust="spacing" textLength="51" x="527" y="147.0332">STRING</text><line style="stroke:#000000;stroke-width:1.0;" x1="522" x2="522" y1="130.5" y2="152.1094"/><line style="stroke:#000000;stroke-width:1.0;" x1="424" x2="603" y1="152.1094" y2="152.1094"/><text fill="#000000" font-family="sans-serif" font-size="14" font-weight="bold" lengthAdjust="spacing" textLength="61" x="429" y="168.6426">exercise</text><text fill="#000000" font-family="sans-serif" font-size="14" lengthAdjust="spacing" textLength="12" x="527" y="168.6426">   </text><line style="stroke:#000000;stroke-width:1.0;" x1="522" x2="522" y1="152.1094" y2="173.7188"/><line style="stroke:#000000;stroke-width:1.0;" x1="424" x2="603" y1="173.7188" y2="173.7188"/><text fill="#000000" font-family="sans-serif" font-size="14" font-weight="bold" lengthAdjust="spacing" textLength="45" x="429" y="190.252">userId</text><text fill="#000000" font-family="sans-serif" font-size="14" lengthAdjust="spacing" textLength="71" x="527" y="190.252">AUTH UUID</text><line style="stroke:#000000;stroke-width:1.0;" x1="522" x2="522" y1="173.7188" y2="195.3281"/><rect fill="none" height="64.8281" rx="5" ry="5" style="stroke:#000000;stroke-width:1.5;" width="179" x="424" y="130.5"/><rect fill="#F1F1F1" height="21.6094" rx="5" ry="5" style="stroke:#F1F1F1;stroke-width:1.5;" width="190" x="640" y="151"/><text fill="#000000" font-family="sans-serif" font-size="14" font-weight="bold" lengthAdjust="spacing" textLength="104" x="645" y="167.5332">Exercise Name</text><text fill="#000000" font-family="sans-serif" font-size="14" lengthAdjust="spacing" textLength="66" x="759" y="167.5332">BOOLEAN</text><line style="stroke:#000000;stroke-width:1.0;" x1="754" x2="754" y1="151" y2="172.6094"/><rect fill="none" height="21.6094" rx="5" ry="5" style="stroke:#000000;stroke-width:1.5;" width="190" x="640" y="151"/><path d="M148,48 L161,48 C162.9291,48 198.2888,40.6673 231.7115,33.6446 " fill="none" style="stroke:#000000;stroke-width:1.0;stroke-dasharray:3.0,3.0;"/><path d="M232.3454,36.6585 L233.972,33.1692 L231.0776,30.6307 L239.2463,32.0598 L232.3454,36.6585 " fill="#000000" style="stroke:#000000;stroke-width:1.0;"/><ellipse cx="148" cy="48" fill="#000000" rx="3" ry="3" style="stroke:#000000;stroke-width:1.0;"/><path d="M348.5,61 L361.5,61 C391.2697,61 424.2437,58.8611 451.8074,56.4696 " fill="none" style="stroke:#000000;stroke-width:1.0;stroke-dasharray:3.0,3.0;"/><path d="M452.0793,59.5191 L454.0945,56.2657 L451.5355,53.4201 L459.4311,55.7899 L452.0793,59.5191 " fill="#000000" style="stroke:#000000;stroke-width:1.0;"/><ellipse cx="348.5" cy="61" fill="#000000" rx="3" ry="3" style="stroke:#000000;stroke-width:1.0;"/><path d="M148,70 L161,70 C178.9835,70 198.3281,69.1389 216.471,67.9493 " fill="none" style="stroke:#000000;stroke-width:1.0;stroke-dasharray:3.0,3.0;"/><path d="M216.6823,71.0271 L218.7793,67.7908 L216.2596,64.8715 L224.1655,67.421 L216.6823,71.0271 " fill="#000000" style="stroke:#000000;stroke-width:1.0;"/><ellipse cx="148" cy="70" fill="#000000" rx="3" ry="3" style="stroke:#000000;stroke-width:1.0;"/><path d="M756.5,101 L769.5,101 C799.0833,101 831.8222,101 859.638,101 " fill="none" style="stroke:#000000;stroke-width:1.0;stroke-dasharray:3.0,3.0;"/><path d="M859.638,104.0833 L861.9504,101 L859.638,97.9167 L867.3462,101 L859.638,104.0833 " fill="#000000" style="stroke:#000000;stroke-width:1.0;"/><ellipse cx="756.5" cy="101" fill="#000000" rx="3" ry="3" style="stroke:#000000;stroke-width:1.0;"/><path d="M535,101 L548,101 C598.6325,101 656.9971,101 694.7549,101 " fill="none" style="stroke:#000000;stroke-width:1.0;stroke-dasharray:3.0,3.0;"/><path d="M694.7549,104.0936 L697.0751,101 L694.7549,97.9064 L702.489,101 L694.7549,104.0936 " fill="#000000" style="stroke:#000000;stroke-width:1.0;"/><ellipse cx="535" cy="101" fill="#000000" rx="3" ry="3" style="stroke:#000000;stroke-width:1.0;"/><path d="M348.5,101 L361.5,101 C399.2861,101 442.3735,101 472.9124,101 " fill="none" style="stroke:#000000;stroke-width:1.0;stroke-dasharray:3.0,3.0;"/><path d="M472.9124,104.1495 L475.2745,101 L472.9124,97.8505 L480.7861,101 L472.9124,104.1495 " fill="#000000" style="stroke:#000000;stroke-width:1.0;"/><ellipse cx="348.5" cy="101" fill="#000000" rx="3" ry="3" style="stroke:#000000;stroke-width:1.0;"/><path d="M148,92 L161,92 C178.9835,92 198.3281,92.8611 216.471,94.0507 " fill="none" style="stroke:#000000;stroke-width:1.0;stroke-dasharray:3.0,3.0;"/><path d="M216.2596,97.1285 L218.7793,94.2092 L216.6823,90.9729 L224.1655,94.579 L216.2596,97.1285 " fill="#000000" style="stroke:#000000;stroke-width:1.0;"/><ellipse cx="148" cy="92" fill="#000000" rx="3" ry="3" style="stroke:#000000;stroke-width:1.0;"/><path d="M591,162 L604,162 C613.2961,162 622.9648,162 632.6477,162 " fill="none" style="stroke:#000000;stroke-width:1.0;stroke-dasharray:3.0,3.0;"/><path d="M632.6477,165.1047 L634.9762,162 L632.6477,158.8953 L640.4094,162 L632.6477,165.1047 " fill="#000000" style="stroke:#000000;stroke-width:1.0;"/><ellipse cx="591" cy="162" fill="#000000" rx="3" ry="3" style="stroke:#000000;stroke-width:1.0;"/><path d="M313.5,152 L326.5,152 C355.8275,152 387.7041,153.3723 416.6706,155.1474 " fill="none" style="stroke:#000000;stroke-width:1.0;stroke-dasharray:3.0,3.0;"/><path d="M416.4766,158.2242 L418.9781,155.2929 L416.8645,152.0707 L424.3624,155.6323 L416.4766,158.2242 " fill="#000000" style="stroke:#000000;stroke-width:1.0;"/><ellipse cx="313.5" cy="152" fill="#000000" rx="3" ry="3" style="stroke:#000000;stroke-width:1.0;"/><path d="M148,113 L161,113 C170.272,113 217.1678,127.6393 252.1051,138.9797 " fill="none" style="stroke:#000000;stroke-width:1.0;stroke-dasharray:3.0,3.0;"/><path d="M251.1597,141.882 L254.2818,139.6887 L253.0504,136.0773 L259.3609,141.3431 L251.1597,141.882 " fill="#000000" style="stroke:#000000;stroke-width:1.0;"/><ellipse cx="148" cy="113" fill="#000000" rx="3" ry="3" style="stroke:#000000;stroke-width:1.0;"/><!--MD5=[02a82c34833834548aa7fb019d27baf6]
@startjson
{
  "default_exercise": {
    "Exercise Name": "BOOLEAN"
  },
  "exercise": {
    "Exercise Name": {
      "img": "STRING",
      "name": "STRING"
    }
  },
  "exercise_pr": {
    "Exercise Name": {
      "UUID": {
        "UUID": {
          "date": "STRING",
          "weight": "STRING"
        }
      }
    }
  },
  "users": {
    "UUID": {
      "displayName": "STRING",
      "exercise": {
        "Exercise Name": "BOOLEAN"
      },
      "userId": "AUTH UUID"
    }
  }
}
@endjson

PlantUML version 1.2022.7(Mon Aug 22 12:01:30 CDT 2022)
(GPL source distribution)
Java Runtime: Java(TM) SE Runtime Environment
JVM: Java HotSpot(TM) 64-Bit Server VM
Default Encoding: UTF-8
Language: en
Country: US
--></g></svg>