<?xml version="1.0" encoding="UTF-8" standalone="no"?><svg xmlns="http://www.w3.org/2000/svg" xmlns:xlink="http://www.w3.org/1999/xlink" contentStyleType="text/css" height="185px" preserveAspectRatio="none" style="width:927px;height:185px;background:#FFFFFF;" version="1.1" viewBox="0 0 927 185" width="927px" zoomAndPan="magnify"><defs/><g><rect fill="#F1F1F1" height="86.4375" rx="5" ry="5" style="stroke:#F1F1F1;stroke-width:1.5;" width="150" x="10" y="38"/><text fill="#000000" font-family="sans-serif" font-size="14" font-weight="bold" lengthAdjust="spacing" textLength="118" x="15" y="54.5332">default_exercise</text><text fill="#000000" font-family="sans-serif" font-size="14" lengthAdjust="spacing" textLength="12" x="143" y="54.5332">   </text><line style="stroke:#000000;stroke-width:1.0;" x1="138" x2="138" y1="38" y2="59.6094"/><line style="stroke:#000000;stroke-width:1.0;" x1="10" x2="160" y1="59.6094" y2="59.6094"/><text fill="#000000" font-family="sans-serif" font-size="14" font-weight="bold" lengthAdjust="spacing" textLength="61" x="15" y="76.1426">exercise</text><text fill="#000000" font-family="sans-serif" font-size="14" lengthAdjust="spacing" textLength="12" x="143" y="76.1426">   </text><line style="stroke:#000000;stroke-width:1.0;" x1="138" x2="138" y1="59.6094" y2="81.2188"/><line style="stroke:#000000;stroke-width:1.0;" x1="10" x2="160" y1="81.2188" y2="81.2188"/><text fill="#000000" font-family="sans-serif" font-size="14" font-weight="bold" lengthAdjust="spacing" textLength="84" x="15" y="97.752">exercise_pr</text><text fill="#000000" font-family="sans-serif" font-size="14" lengthAdjust="spacing" textLength="12" x="143" y="97.752">   </text><line style="stroke:#000000;stroke-width:1.0;" x1="138" x2="138" y1="81.2188" y2="102.8281"/><line style="stroke:#000000;stroke-width:1.0;" x1="10" x2="160" y1="102.8281" y2="102.8281"/><text fill="#000000" font-family="sans-serif" font-size="14" font-weight="bold" lengthAdjust="spacing" textLength="40" x="15" y="119.3613">users</text><text fill="#000000" font-family="sans-serif" font-size="14" lengthAdjust="spacing" textLength="12" x="143" y="119.3613">   </text><line style="stroke:#000000;stroke-width:1.0;" x1="138" x2="138" y1="102.8281" y2="124.4375"/><rect fill="none" height="86.4375" rx="5" ry="5" style="stroke:#000000;stroke-width:1.5;" width="150" x="10" y="38"/><rect fill="#F1F1F1" height="21.6094" rx="5" ry="5" style="stroke:#F1F1F1;stroke-width:1.5;" width="165" x="197" y="10"/><text fill="#000000" font-family="sans-serif" font-size="14" font-weight="bold" lengthAdjust="spacing" textLength="79" x="202" y="26.5332">Exercise ID</text><text fill="#000000" font-family="sans-serif" font-size="14" lengthAdjust="spacing" textLength="66" x="291" y="26.5332">BOOLEAN</text><line style="stroke:#000000;stroke-width:1.0;" x1="286" x2="286" y1="10" y2="31.6094"/><rect fill="none" height="21.6094" rx="5" ry="5" style="stroke:#000000;stroke-width:1.5;" width="165" x="197" y="10"/><rect fill="#F1F1F1" height="21.6094" rx="5" ry="5" style="stroke:#F1F1F1;stroke-width:1.5;" width="111" x="224" y="50"/><text fill="#000000" font-family="sans-serif" font-size="14" font-weight="bold" lengthAdjust="spacing" textLength="79" x="229" y="66.5332">Exercise ID</text><text fill="#000000" font-family="sans-serif" font-size="14" lengthAdjust="spacing" textLength="12" x="318" y="66.5332">   </text><line style="stroke:#000000;stroke-width:1.0;" x1="313" x2="313" y1="50" y2="71.6094"/><rect fill="none" height="21.6094" rx="5" ry="5" style="stroke:#000000;stroke-width:1.5;" width="111" x="224" y="50"/><rect fill="#F1F1F1" height="43.2188" rx="5" ry="5" style="stroke:#F1F1F1;stroke-width:1.5;" width="109" x="424" y="28.5"/><text fill="#000000" font-family="sans-serif" font-size="14" font-weight="bold" lengthAdjust="spacing" textLength="25" x="429" y="45.0332">img</text><text fill="#000000" font-family="sans-serif" font-size="14" lengthAdjust="spacing" textLength="51" x="477" y="45.0332">STRING</text><line style="stroke:#000000;stroke-width:1.0;" x1="472" x2="472" y1="28.5" y2="50.1094"/><line style="stroke:#000000;stroke-width:1.0;" x1="424" x2="533" y1="50.1094" y2="50.1094"/><text fill="#000000" font-family="sans-serif" font-size="14" font-weight="bold" lengthAdjust="spacing" textLength="38" x="429" y="66.6426">name</text><text fill="#000000" font-family="sans-serif" font-size="14" lengthAdjust="spacing" textLength="51" x="477" y="66.6426">STRING</text><line style="stroke:#000000;stroke-width:1.0;" x1="472" x2="472" y1="50.1094" y2="71.7188"/><rect fill="none" height="43.2188" rx="5" ry="5" style="stroke:#000000;stroke-width:1.5;" width="109" x="424" y="28.5"/><rect fill="#F1F1F1" height="21.6094" rx="5" ry="5" style="stroke:#F1F1F1;stroke-width:1.5;" width="111" x="224" y="90"/><text fill="#000000" font-family="sans-serif" font-size="14" font-weight="bold" lengthAdjust="spacing" textLength="79" x="229" y="106.5332">Exercise ID</text><text fill="#000000" font-family="sans-serif" font-size="14" lengthAdjust="spacing" textLength="12" x="318" y="106.5332">   </text><line style="stroke:#000000;stroke-width:1.0;" x1="313" x2="313" y1="90" y2="111.6094"/><rect fill="none" height="21.6094" rx="5" ry="5" style="stroke:#000000;stroke-width:1.5;" width="111" x="224" y="90"/><rect fill="#F1F1F1" height="21.6094" rx="5" ry="5" style="stroke:#F1F1F1;stroke-width:1.5;" width="103" x="427" y="90"/><text fill="#000000" font-family="sans-serif" font-size="14" font-weight="bold" lengthAdjust="spacing" textLength="71" x="432" y="106.5332">User UUID</text><text fill="#000000" font-family="sans-serif" font-size="14" lengthAdjust="spacing" textLength="12" x="513" y="106.5332">   </text><line style="stroke:#000000;stroke-width:1.0;" x1="508" x2="508" y1="90" y2="111.6094"/><rect fill="none" height="21.6094" rx="5" ry="5" style="stroke:#000000;stroke-width:1.5;" width="103" x="427" y="90"/><rect fill="#F1F1F1" height="21.6094" rx="5" ry="5" style="stroke:#F1F1F1;stroke-width:1.5;" width="77" x="639" y="90"/><text fill="#000000" font-family="sans-serif" font-size="14" font-weight="bold" lengthAdjust="spacing" textLength="45" x="644" y="106.5332">userId</text><text fill="#000000" font-family="sans-serif" font-size="14" lengthAdjust="spacing" textLength="12" x="699" y="106.5332">   </text><line style="stroke:#000000;stroke-width:1.0;" x1="694" x2="694" y1="90" y2="111.6094"/><rect fill="none" height="21.6094" rx="5" ry="5" style="stroke:#000000;stroke-width:1.5;" width="77" x="639" y="90"/><rect fill="#F1F1F1" height="43.2188" rx="5" ry="5" style="stroke:#F1F1F1;stroke-width:1.5;" width="118" x="797" y="79.5"/><text fill="#000000" font-family="sans-serif" font-size="14" font-weight="bold" lengthAdjust="spacing" textLength="31" x="802" y="96.0332">date</text><text fill="#000000" font-family="sans-serif" font-size="14" lengthAdjust="spacing" textLength="51" x="859" y="96.0332">STRING</text><line style="stroke:#000000;stroke-width:1.0;" x1="854" x2="854" y1="79.5" y2="101.1094"/><line style="stroke:#000000;stroke-width:1.0;" x1="797" x2="915" y1="101.1094" y2="101.1094"/><text fill="#000000" font-family="sans-serif" font-size="14" font-weight="bold" lengthAdjust="spacing" textLength="47" x="802" y="117.6426">weight</text><text fill="#000000" font-family="sans-serif" font-size="14" lengthAdjust="spacing" textLength="51" x="859" y="117.6426">STRING</text><line style="stroke:#000000;stroke-width:1.0;" x1="854" x2="854" y1="101.1094" y2="122.7188"/><rect fill="none" height="43.2188" rx="5" ry="5" style="stroke:#000000;stroke-width:1.5;" width="118" x="797" y="79.5"/><rect fill="#F1F1F1" height="21.6094" rx="5" ry="5" style="stroke:#F1F1F1;stroke-width:1.5;" width="103" x="228" y="135"/><text fill="#000000" font-family="sans-serif" font-size="14" font-weight="bold" lengthAdjust="spacing" textLength="71" x="233" y="151.5332">User UUID</text><text fill="#000000" font-family="sans-serif" font-size="14" lengthAdjust="spacing" textLength="12" x="314" y="151.5332">   </text><line style="stroke:#000000;stroke-width:1.0;" x1="309" x2="309" y1="135" y2="156.6094"/><rect fill="none" height="21.6094" rx="5" ry="5" style="stroke:#000000;stroke-width:1.5;" width="103" x="228" y="135"/><rect fill="#F1F1F1" height="43.2188" rx="5" ry="5" style="stroke:#F1F1F1;stroke-width:1.5;" width="159" x="399" y="130.5"/><text fill="#000000" font-family="sans-serif" font-size="14" font-weight="bold" lengthAdjust="spacing" textLength="88" x="404" y="147.0332">displayName</text><text fill="#000000" font-family="sans-serif" font-size="14" lengthAdjust="spacing" textLength="51" x="502" y="147.0332">STRING</text><line style="stroke:#000000;stroke-width:1.0;" x1="497" x2="497" y1="130.5" y2="152.1094"/><line style="stroke:#000000;stroke-width:1.0;" x1="399" x2="558" y1="152.1094" y2="152.1094"/><text fill="#000000" font-family="sans-serif" font-size="14" font-weight="bold" lengthAdjust="spacing" textLength="61" x="404" y="168.6426">exercise</text><text fill="#000000" font-family="sans-serif" font-size="14" lengthAdjust="spacing" textLength="12" x="502" y="168.6426">   </text><line style="stroke:#000000;stroke-width:1.0;" x1="497" x2="497" y1="152.1094" y2="173.7188"/><rect fill="none" height="43.2188" rx="5" ry="5" style="stroke:#000000;stroke-width:1.5;" width="159" x="399" y="130.5"/><rect fill="#F1F1F1" height="21.6094" rx="5" ry="5" style="stroke:#F1F1F1;stroke-width:1.5;" width="165" x="595" y="152"/><text fill="#000000" font-family="sans-serif" font-size="14" font-weight="bold" lengthAdjust="spacing" textLength="79" x="600" y="168.5332">Exercise ID</text><text fill="#000000" font-family="sans-serif" font-size="14" lengthAdjust="spacing" textLength="66" x="689" y="168.5332">BOOLEAN</text><line style="stroke:#000000;stroke-width:1.0;" x1="684" x2="684" y1="152" y2="173.6094"/><rect fill="none" height="21.6094" rx="5" ry="5" style="stroke:#000000;stroke-width:1.5;" width="165" x="595" y="152"/><path d="M148,48 L161,48 C164.4752,48 195.8688,40.7901 225.399,33.8217 " fill="none" style="stroke:#000000;stroke-width:1.0;stroke-dasharray:3.0,3.0;"/><path d="M226.1038,36.8015 L227.6338,33.2931 L224.6943,30.842 L232.8484,32.0598 L226.1038,36.8015 " fill="#000000" style="stroke:#000000;stroke-width:1.0;"/><ellipse cx="148" cy="48" fill="#000000" rx="3" ry="3" style="stroke:#000000;stroke-width:1.0;"/><path d="M324,61 L337,61 C363.1457,61 391.9361,59.0968 416.6474,56.8737 " fill="none" style="stroke:#000000;stroke-width:1.0;stroke-dasharray:3.0,3.0;"/><path d="M416.9268,59.8859 L418.9066,56.6642 L416.368,53.8614 L424.178,56.1752 L416.9268,59.8859 " fill="#000000" style="stroke:#000000;stroke-width:1.0;"/><ellipse cx="324" cy="61" fill="#000000" rx="3" ry="3" style="stroke:#000000;stroke-width:1.0;"/><path d="M148,70 L161,70 C179.1572,70 198.8406,68.9274 216.8325,67.5228 " fill="none" style="stroke:#000000;stroke-width:1.0;stroke-dasharray:3.0,3.0;"/><path d="M217.0806,70.562 L219.1119,67.3368 L216.5845,64.4837 L224.4305,66.9027 L217.0806,70.562 " fill="#000000" style="stroke:#000000;stroke-width:1.0;"/><ellipse cx="148" cy="70" fill="#000000" rx="3" ry="3" style="stroke:#000000;stroke-width:1.0;"/><path d="M705,101 L718,101 C741.3773,101 766.9903,101 789.7076,101 " fill="none" style="stroke:#000000;stroke-width:1.0;stroke-dasharray:3.0,3.0;"/><path d="M789.7076,104.0343 L791.9833,101 L789.7076,97.9657 L797.2933,101 L789.7076,104.0343 " fill="#000000" style="stroke:#000000;stroke-width:1.0;"/><ellipse cx="705" cy="101" fill="#000000" rx="3" ry="3" style="stroke:#000000;stroke-width:1.0;"/><path d="M519,101 L532,101 C565.3649,101 603.0482,101 631.6352,101 " fill="none" style="stroke:#000000;stroke-width:1.0;stroke-dasharray:3.0,3.0;"/><path d="M631.6352,104.1242 L633.9784,101 L631.6352,97.8758 L639.4458,101 L631.6352,104.1242 " fill="#000000" style="stroke:#000000;stroke-width:1.0;"/><ellipse cx="519" cy="101" fill="#000000" rx="3" ry="3" style="stroke:#000000;stroke-width:1.0;"/><path d="M324,101 L337,101 C364.1757,101 394.2976,101 419.6999,101 " fill="none" style="stroke:#000000;stroke-width:1.0;stroke-dasharray:3.0,3.0;"/><path d="M419.6999,104.0894 L422.0169,101 L419.6999,97.9106 L427.4234,101 L419.6999,104.0894 " fill="#000000" style="stroke:#000000;stroke-width:1.0;"/><ellipse cx="324" cy="101" fill="#000000" rx="3" ry="3" style="stroke:#000000;stroke-width:1.0;"/><path d="M148,92 L161,92 C179.1572,92 198.8406,93.0726 216.8325,94.4772 " fill="none" style="stroke:#000000;stroke-width:1.0;stroke-dasharray:3.0,3.0;"/><path d="M216.5845,97.5163 L219.1119,94.6632 L217.0806,91.438 L224.4305,95.0973 L216.5845,97.5163 " fill="#000000" style="stroke:#000000;stroke-width:1.0;"/><ellipse cx="148" cy="92" fill="#000000" rx="3" ry="3" style="stroke:#000000;stroke-width:1.0;"/><path d="M546,163 L559,163 C568.2948,163 578.0014,163 587.6819,163 " fill="none" style="stroke:#000000;stroke-width:1.0;stroke-dasharray:3.0,3.0;"/><path d="M587.6819,166.0998 L590.0068,163 L587.6819,159.9002 L595.4315,163 L587.6819,166.0998 " fill="#000000" style="stroke:#000000;stroke-width:1.0;"/><ellipse cx="546" cy="163" fill="#000000" rx="3" ry="3" style="stroke:#000000;stroke-width:1.0;"/><path d="M320,146 L333,146 C352.0174,146 372.4259,146.5216 391.7518,147.2572 " fill="none" style="stroke:#000000;stroke-width:1.0;stroke-dasharray:3.0,3.0;"/><path d="M391.6304,150.3105 L394.0417,147.3483 L391.8732,144.204 L399.3849,147.5608 L391.6304,150.3105 " fill="#000000" style="stroke:#000000;stroke-width:1.0;"/><ellipse cx="320" cy="146" fill="#000000" rx="3" ry="3" style="stroke:#000000;stroke-width:1.0;"/><path d="M148,113 L161,113 C168.705,113 205.4848,123.5701 235.9613,132.7459 " fill="none" style="stroke:#000000;stroke-width:1.0;stroke-dasharray:3.0,3.0;"/><path d="M235.0917,135.6219 L238.1183,133.398 L236.8308,129.8699 L243.1513,134.9197 L235.0917,135.6219 " fill="#000000" style="stroke:#000000;stroke-width:1.0;"/><ellipse cx="148" cy="113" fill="#000000" rx="3" ry="3" style="stroke:#000000;stroke-width:1.0;"/><!--MD5=[3ac9c8e1d0264a81e3752a097edcebb1]
@startjson
{
  "default_exercise": {
    "Exercise ID": "BOOLEAN"
  },
  "exercise": {
    "Exercise ID": {
      "img": "STRING",
      "name": "STRING"
    }
  },
  "exercise_pr": {
    "Exercise ID": {
      "User UUID": {
        "userId": {
          "date": "STRING",
          "weight": "STRING"
        }
      }
    }
  },
  "users": {
    "User UUID": {
      "displayName": "STRING",
      "exercise": {
        "Exercise ID": "BOOLEAN"
      }
    }
  }
}
@endjson

PlantUML version 1.2022.7(Mon Aug 22 12:01:30 CDT 2022)
(GPL source distribution)
Java Runtime: Java(TM) SE Runtime Environment
JVM: Java HotSpot(TM) 64-Bit Server VM
Default Encoding: UTF-8
Language: en
Country: US
--></g></svg>