<?xml version="1.0" encoding="UTF-8" standalone="no"?><svg xmlns="http://www.w3.org/2000/svg" xmlns:xlink="http://www.w3.org/1999/xlink" contentStyleType="text/css" height="207px" preserveAspectRatio="none" style="width:947px;height:207px;background:#FFFFFF;" version="1.1" viewBox="0 0 947 207" width="947px" zoomAndPan="magnify"><defs/><g><rect fill="#F1F1F1" height="86.4375" rx="5" ry="5" style="stroke:#F1F1F1;stroke-width:1.5;" width="150" x="10" y="38"/><text fill="#000000" font-family="sans-serif" font-size="14" font-weight="bold" lengthAdjust="spacing" textLength="118" x="15" y="54.5332">default_exercise</text><text fill="#000000" font-family="sans-serif" font-size="14" lengthAdjust="spacing" textLength="12" x="143" y="54.5332">   </text><line style="stroke:#000000;stroke-width:1.0;" x1="138" x2="138" y1="38" y2="59.6094"/><line style="stroke:#000000;stroke-width:1.0;" x1="10" x2="160" y1="59.6094" y2="59.6094"/><text fill="#000000" font-family="sans-serif" font-size="14" font-weight="bold" lengthAdjust="spacing" textLength="61" x="15" y="76.1426">exercise</text><text fill="#000000" font-family="sans-serif" font-size="14" lengthAdjust="spacing" textLength="12" x="143" y="76.1426">   </text><line style="stroke:#000000;stroke-width:1.0;" x1="138" x2="138" y1="59.6094" y2="81.2188"/><line style="stroke:#000000;stroke-width:1.0;" x1="10" x2="160" y1="81.2188" y2="81.2188"/><text fill="#000000" font-family="sans-serif" font-size="14" font-weight="bold" lengthAdjust="spacing" textLength="84" x="15" y="97.752">exercise_pr</text><text fill="#000000" font-family="sans-serif" font-size="14" lengthAdjust="spacing" textLength="12" x="143" y="97.752">   </text><line style="stroke:#000000;stroke-width:1.0;" x1="138" x2="138" y1="81.2188" y2="102.8281"/><line style="stroke:#000000;stroke-width:1.0;" x1="10" x2="160" y1="102.8281" y2="102.8281"/><text fill="#000000" font-family="sans-serif" font-size="14" font-weight="bold" lengthAdjust="spacing" textLength="40" x="15" y="119.3613">users</text><text fill="#000000" font-family="sans-serif" font-size="14" lengthAdjust="spacing" textLength="12" x="143" y="119.3613">   </text><line style="stroke:#000000;stroke-width:1.0;" x1="138" x2="138" y1="102.8281" y2="124.4375"/><rect fill="none" height="86.4375" rx="5" ry="5" style="stroke:#000000;stroke-width:1.5;" width="150" x="10" y="38"/><rect fill="#F1F1F1" height="21.6094" rx="5" ry="5" style="stroke:#F1F1F1;stroke-width:1.5;" width="165" x="197" y="10"/><text fill="#000000" font-family="sans-serif" font-size="14" font-weight="bold" lengthAdjust="spacing" textLength="79" x="202" y="26.5332">Exercise ID</text><text fill="#000000" font-family="sans-serif" font-size="14" lengthAdjust="spacing" textLength="66" x="291" y="26.5332">BOOLEAN</text><line style="stroke:#000000;stroke-width:1.0;" x1="286" x2="286" y1="10" y2="31.6094"/><rect fill="none" height="21.6094" rx="5" ry="5" style="stroke:#000000;stroke-width:1.5;" width="165" x="197" y="10"/><rect fill="#F1F1F1" height="21.6094" rx="5" ry="5" style="stroke:#F1F1F1;stroke-width:1.5;" width="111" x="224" y="50"/><text fill="#000000" font-family="sans-serif" font-size="14" font-weight="bold" lengthAdjust="spacing" textLength="79" x="229" y="66.5332">Exercise ID</text><text fill="#000000" font-family="sans-serif" font-size="14" lengthAdjust="spacing" textLength="12" x="318" y="66.5332">   </text><line style="stroke:#000000;stroke-width:1.0;" x1="313" x2="313" y1="50" y2="71.6094"/><rect fill="none" height="21.6094" rx="5" ry="5" style="stroke:#000000;stroke-width:1.5;" width="111" x="224" y="50"/><rect fill="#F1F1F1" height="43.2188" rx="5" ry="5" style="stroke:#F1F1F1;stroke-width:1.5;" width="109" x="434" y="28.5"/><text fill="#000000" font-family="sans-serif" font-size="14" font-weight="bold" lengthAdjust="spacing" textLength="25" x="439" y="45.0332">img</text><text fill="#000000" font-family="sans-serif" font-size="14" lengthAdjust="spacing" textLength="51" x="487" y="45.0332">STRING</text><line style="stroke:#000000;stroke-width:1.0;" x1="482" x2="482" y1="28.5" y2="50.1094"/><line style="stroke:#000000;stroke-width:1.0;" x1="434" x2="543" y1="50.1094" y2="50.1094"/><text fill="#000000" font-family="sans-serif" font-size="14" font-weight="bold" lengthAdjust="spacing" textLength="38" x="439" y="66.6426">name</text><text fill="#000000" font-family="sans-serif" font-size="14" lengthAdjust="spacing" textLength="51" x="487" y="66.6426">STRING</text><line style="stroke:#000000;stroke-width:1.0;" x1="482" x2="482" y1="50.1094" y2="71.7188"/><rect fill="none" height="43.2188" rx="5" ry="5" style="stroke:#000000;stroke-width:1.5;" width="109" x="434" y="28.5"/><rect fill="#F1F1F1" height="21.6094" rx="5" ry="5" style="stroke:#F1F1F1;stroke-width:1.5;" width="111" x="224" y="90"/><text fill="#000000" font-family="sans-serif" font-size="14" font-weight="bold" lengthAdjust="spacing" textLength="79" x="229" y="106.5332">Exercise ID</text><text fill="#000000" font-family="sans-serif" font-size="14" lengthAdjust="spacing" textLength="12" x="318" y="106.5332">   </text><line style="stroke:#000000;stroke-width:1.0;" x1="313" x2="313" y1="90" y2="111.6094"/><rect fill="none" height="21.6094" rx="5" ry="5" style="stroke:#000000;stroke-width:1.5;" width="111" x="224" y="90"/><rect fill="#F1F1F1" height="21.6094" rx="5" ry="5" style="stroke:#F1F1F1;stroke-width:1.5;" width="66" x="455.5" y="90"/><text fill="#000000" font-family="sans-serif" font-size="14" font-weight="bold" lengthAdjust="spacing" textLength="34" x="460.5" y="106.5332">UUID</text><text fill="#000000" font-family="sans-serif" font-size="14" lengthAdjust="spacing" textLength="12" x="504.5" y="106.5332">   </text><line style="stroke:#000000;stroke-width:1.0;" x1="499.5" x2="499.5" y1="90" y2="111.6094"/><rect fill="none" height="21.6094" rx="5" ry="5" style="stroke:#000000;stroke-width:1.5;" width="66" x="455.5" y="90"/><rect fill="#F1F1F1" height="21.6094" rx="5" ry="5" style="stroke:#F1F1F1;stroke-width:1.5;" width="77" x="659" y="90"/><text fill="#000000" font-family="sans-serif" font-size="14" font-weight="bold" lengthAdjust="spacing" textLength="45" x="664" y="106.5332">userId</text><text fill="#000000" font-family="sans-serif" font-size="14" lengthAdjust="spacing" textLength="12" x="719" y="106.5332">   </text><line style="stroke:#000000;stroke-width:1.0;" x1="714" x2="714" y1="90" y2="111.6094"/><rect fill="none" height="21.6094" rx="5" ry="5" style="stroke:#000000;stroke-width:1.5;" width="77" x="659" y="90"/><rect fill="#F1F1F1" height="43.2188" rx="5" ry="5" style="stroke:#F1F1F1;stroke-width:1.5;" width="118" x="817" y="79.5"/><text fill="#000000" font-family="sans-serif" font-size="14" font-weight="bold" lengthAdjust="spacing" textLength="31" x="822" y="96.0332">date</text><text fill="#000000" font-family="sans-serif" font-size="14" lengthAdjust="spacing" textLength="51" x="879" y="96.0332">STRING</text><line style="stroke:#000000;stroke-width:1.0;" x1="874" x2="874" y1="79.5" y2="101.1094"/><line style="stroke:#000000;stroke-width:1.0;" x1="817" x2="935" y1="101.1094" y2="101.1094"/><text fill="#000000" font-family="sans-serif" font-size="14" font-weight="bold" lengthAdjust="spacing" textLength="47" x="822" y="117.6426">weight</text><text fill="#000000" font-family="sans-serif" font-size="14" lengthAdjust="spacing" textLength="51" x="879" y="117.6426">STRING</text><line style="stroke:#000000;stroke-width:1.0;" x1="874" x2="874" y1="101.1094" y2="122.7188"/><rect fill="none" height="43.2188" rx="5" ry="5" style="stroke:#000000;stroke-width:1.5;" width="118" x="817" y="79.5"/><rect fill="#F1F1F1" height="21.6094" rx="5" ry="5" style="stroke:#F1F1F1;stroke-width:1.5;" width="66" x="246.5" y="141"/><text fill="#000000" font-family="sans-serif" font-size="14" font-weight="bold" lengthAdjust="spacing" textLength="34" x="251.5" y="157.5332">UUID</text><text fill="#000000" font-family="sans-serif" font-size="14" lengthAdjust="spacing" textLength="12" x="295.5" y="157.5332">   </text><line style="stroke:#000000;stroke-width:1.0;" x1="290.5" x2="290.5" y1="141" y2="162.6094"/><rect fill="none" height="21.6094" rx="5" ry="5" style="stroke:#000000;stroke-width:1.5;" width="66" x="246.5" y="141"/><rect fill="#F1F1F1" height="64.8281" rx="5" ry="5" style="stroke:#F1F1F1;stroke-width:1.5;" width="179" x="399" y="130.5"/><text fill="#000000" font-family="sans-serif" font-size="14" font-weight="bold" lengthAdjust="spacing" textLength="88" x="404" y="147.0332">displayName</text><text fill="#000000" font-family="sans-serif" font-size="14" lengthAdjust="spacing" textLength="51" x="502" y="147.0332">STRING</text><line style="stroke:#000000;stroke-width:1.0;" x1="497" x2="497" y1="130.5" y2="152.1094"/><line style="stroke:#000000;stroke-width:1.0;" x1="399" x2="578" y1="152.1094" y2="152.1094"/><text fill="#000000" font-family="sans-serif" font-size="14" font-weight="bold" lengthAdjust="spacing" textLength="61" x="404" y="168.6426">exercise</text><text fill="#000000" font-family="sans-serif" font-size="14" lengthAdjust="spacing" textLength="12" x="502" y="168.6426">   </text><line style="stroke:#000000;stroke-width:1.0;" x1="497" x2="497" y1="152.1094" y2="173.7188"/><line style="stroke:#000000;stroke-width:1.0;" x1="399" x2="578" y1="173.7188" y2="173.7188"/><text fill="#000000" font-family="sans-serif" font-size="14" font-weight="bold" lengthAdjust="spacing" textLength="45" x="404" y="190.252">userId</text><text fill="#000000" font-family="sans-serif" font-size="14" lengthAdjust="spacing" textLength="71" x="502" y="190.252">AUTH UUID</text><line style="stroke:#000000;stroke-width:1.0;" x1="497" x2="497" y1="173.7188" y2="195.3281"/><rect fill="none" height="64.8281" rx="5" ry="5" style="stroke:#000000;stroke-width:1.5;" width="179" x="399" y="130.5"/><rect fill="#F1F1F1" height="21.6094" rx="5" ry="5" style="stroke:#F1F1F1;stroke-width:1.5;" width="165" x="615" y="151"/><text fill="#000000" font-family="sans-serif" font-size="14" font-weight="bold" lengthAdjust="spacing" textLength="79" x="620" y="167.5332">Exercise ID</text><text fill="#000000" font-family="sans-serif" font-size="14" lengthAdjust="spacing" textLength="66" x="709" y="167.5332">BOOLEAN</text><line style="stroke:#000000;stroke-width:1.0;" x1="704" x2="704" y1="151" y2="172.6094"/><rect fill="none" height="21.6094" rx="5" ry="5" style="stroke:#000000;stroke-width:1.5;" width="165" x="615" y="151"/><path d="M148,48 L161,48 C164.4752,48 195.8688,40.7901 225.399,33.8217 " fill="none" style="stroke:#000000;stroke-width:1.0;stroke-dasharray:3.0,3.0;"/><path d="M226.1038,36.8015 L227.6338,33.2931 L224.6943,30.842 L232.8484,32.0598 L226.1038,36.8015 " fill="#000000" style="stroke:#000000;stroke-width:1.0;"/><ellipse cx="148" cy="48" fill="#000000" rx="3" ry="3" style="stroke:#000000;stroke-width:1.0;"/><path d="M324,61 L337,61 C366.5519,61 399.2712,58.8783 426.6759,56.4986 " fill="none" style="stroke:#000000;stroke-width:1.0;stroke-dasharray:3.0,3.0;"/><path d="M426.9465,59.5312 L428.9504,56.2957 L426.4053,53.466 L434.2574,55.8221 L426.9465,59.5312 " fill="#000000" style="stroke:#000000;stroke-width:1.0;"/><ellipse cx="324" cy="61" fill="#000000" rx="3" ry="3" style="stroke:#000000;stroke-width:1.0;"/><path d="M148,70 L161,70 C179.1572,70 198.8406,68.9274 216.8325,67.5228 " fill="none" style="stroke:#000000;stroke-width:1.0;stroke-dasharray:3.0,3.0;"/><path d="M217.0806,70.562 L219.1119,67.3368 L216.5845,64.4837 L224.4305,66.9027 L217.0806,70.562 " fill="#000000" style="stroke:#000000;stroke-width:1.0;"/><ellipse cx="148" cy="70" fill="#000000" rx="3" ry="3" style="stroke:#000000;stroke-width:1.0;"/><path d="M725,101 L738,101 C761.3773,101 786.9903,101 809.7076,101 " fill="none" style="stroke:#000000;stroke-width:1.0;stroke-dasharray:3.0,3.0;"/><path d="M809.7076,104.0343 L811.9833,101 L809.7076,97.9657 L817.2933,101 L809.7076,104.0343 " fill="#000000" style="stroke:#000000;stroke-width:1.0;"/><ellipse cx="725" cy="101" fill="#000000" rx="3" ry="3" style="stroke:#000000;stroke-width:1.0;"/><path d="M510,101 L523,101 C566.6711,101 616.5076,101 651.6194,101 " fill="none" style="stroke:#000000;stroke-width:1.0;stroke-dasharray:3.0,3.0;"/><path d="M651.6194,104.0819 L653.9309,101 L651.6194,97.9181 L659.3243,101 L651.6194,104.0819 " fill="#000000" style="stroke:#000000;stroke-width:1.0;"/><ellipse cx="510" cy="101" fill="#000000" rx="3" ry="3" style="stroke:#000000;stroke-width:1.0;"/><path d="M324,101 L337,101 C374.6614,101 417.6066,101 448.0447,101 " fill="none" style="stroke:#000000;stroke-width:1.0;stroke-dasharray:3.0,3.0;"/><path d="M448.0447,104.1391 L450.399,101 L448.0447,97.8609 L455.8924,101 L448.0447,104.1391 " fill="#000000" style="stroke:#000000;stroke-width:1.0;"/><ellipse cx="324" cy="101" fill="#000000" rx="3" ry="3" style="stroke:#000000;stroke-width:1.0;"/><path d="M148,92 L161,92 C179.1572,92 198.8406,93.0726 216.8325,94.4772 " fill="none" style="stroke:#000000;stroke-width:1.0;stroke-dasharray:3.0,3.0;"/><path d="M216.5845,97.5163 L219.1119,94.6632 L217.0806,91.438 L224.4305,95.0973 L216.5845,97.5163 " fill="#000000" style="stroke:#000000;stroke-width:1.0;"/><ellipse cx="148" cy="92" fill="#000000" rx="3" ry="3" style="stroke:#000000;stroke-width:1.0;"/><path d="M566,162 L579,162 C588.2948,162 598.0014,162 607.6819,162 " fill="none" style="stroke:#000000;stroke-width:1.0;stroke-dasharray:3.0,3.0;"/><path d="M607.6819,165.0998 L610.0068,162 L607.6819,158.9002 L615.4315,162 L607.6819,165.0998 " fill="#000000" style="stroke:#000000;stroke-width:1.0;"/><ellipse cx="566" cy="162" fill="#000000" rx="3" ry="3" style="stroke:#000000;stroke-width:1.0;"/><path d="M301,152 L314,152 C339.0993,152 366.1947,153.1541 391.3596,154.7147 " fill="none" style="stroke:#000000;stroke-width:1.0;stroke-dasharray:3.0,3.0;"/><path d="M391.161,157.8121 L393.6827,154.8637 L391.5582,151.6173 L399.1031,155.2112 L391.161,157.8121 " fill="#000000" style="stroke:#000000;stroke-width:1.0;"/><ellipse cx="301" cy="152" fill="#000000" rx="3" ry="3" style="stroke:#000000;stroke-width:1.0;"/><path d="M148,113 L161,113 C169.2895,113 210.1505,127.0546 241.4897,138.2895 " fill="none" style="stroke:#000000;stroke-width:1.0;stroke-dasharray:3.0,3.0;"/><path d="M240.434,141.2223 L243.6892,139.0812 L242.5453,135.3567 L248.8216,140.9285 L240.434,141.2223 " fill="#000000" style="stroke:#000000;stroke-width:1.0;"/><ellipse cx="148" cy="113" fill="#000000" rx="3" ry="3" style="stroke:#000000;stroke-width:1.0;"/><!--MD5=[a795d1945f0635e5d5819b59598ac848]
@startjson
{
  "default_exercise": {
    "Exercise ID": "BOOLEAN"
  },
  "exercise": {
    "Exercise ID": {
      "img": "STRING",
      "name": "STRING"
    }
  },
  "exercise_pr": {
    "Exercise ID": {
      "UUID": {
        "userId": {
          "date": "STRING",
          "weight": "STRING"
        }
      }
    }
  },
  "users": {
    "UUID": {
      "displayName": "STRING",
      "exercise": {
        "Exercise ID": "BOOLEAN"
      },
      "userId": "AUTH UUID"
    }
  }
}
@endjson

PlantUML version 1.2022.7(Mon Aug 22 12:01:30 CDT 2022)
(GPL source distribution)
Java Runtime: Java(TM) SE Runtime Environment
JVM: Java HotSpot(TM) 64-Bit Server VM
Default Encoding: UTF-8
Language: en
Country: US
--></g></svg>